<?xml version="1.0" encoding="UTF-8" standalone="no"?>
<!DOCTYPE svg PUBLIC "-//W3C//DTD SVG 1.1//EN"
 "http://www.w3.org/Graphics/SVG/1.1/DTD/svg11.dtd">
<!-- Generated by graphviz version 2.50.0 (0)
 -->
<!-- Title: Tree Pages: 1 -->
<svg width="774pt" height="790pt"
 viewBox="0.00 0.00 774.00 790.00" xmlns="http://www.w3.org/2000/svg" xmlns:xlink="http://www.w3.org/1999/xlink">
<g id="graph0" class="graph" transform="scale(1 1) rotate(0) translate(4 786)">
<title>Tree</title>
<polygon fill="white" stroke="transparent" points="-4,4 -4,-786 770,-786 770,4 -4,4"/>
<!-- 0 -->
<g id="node1" class="node">
<title>0</title>
<polygon fill="#fffdfd" stroke="black" points="281.5,-782 113.5,-782 113.5,-699 281.5,-699 281.5,-782"/>
<text text-anchor="middle" x="197.5" y="-766.8" font-family="Helvetica,sans-Serif" font-size="14.00">petal length (cm) &lt;= 2.45</text>
<text text-anchor="middle" x="197.5" y="-751.8" font-family="Helvetica,sans-Serif" font-size="14.00">gini = 0.667</text>
<text text-anchor="middle" x="197.5" y="-736.8" font-family="Helvetica,sans-Serif" font-size="14.00">samples = 120</text>
<text text-anchor="middle" x="197.5" y="-721.8" font-family="Helvetica,sans-Serif" font-size="14.00">value = [41, 40, 39]</text>
<text text-anchor="middle" x="197.5" y="-706.8" font-family="Helvetica,sans-Serif" font-size="14.00">class = setosa</text>
</g>
<!-- 1 -->
<g id="node2" class="node">
<title>1</title>
<polygon fill="#e58139" stroke="black" points="176,-655.5 59,-655.5 59,-587.5 176,-587.5 176,-655.5"/>
<text text-anchor="middle" x="117.5" y="-640.3" font-family="Helvetica,sans-Serif" font-size="14.00">gini = 0.0</text>
<text text-anchor="middle" x="117.5" y="-625.3" font-family="Helvetica,sans-Serif" font-size="14.00">samples = 41</text>
<text text-anchor="middle" x="117.5" y="-610.3" font-family="Helvetica,sans-Serif" font-size="14.00">value = [41, 0, 0]</text>
<text text-anchor="middle" x="117.5" y="-595.3" font-family="Helvetica,sans-Serif" font-size="14.00">class = setosa</text>
</g>
<!-- 0&#45;&gt;1 -->
<g id="edge1" class="edge">
<title>0&#45;&gt;1</title>
<path fill="none" stroke="black" d="M169.74,-698.91C162.05,-687.65 153.68,-675.42 145.95,-664.11"/>
<polygon fill="black" stroke="black" points="148.71,-661.95 140.18,-655.67 142.93,-665.9 148.71,-661.95"/>
<text text-anchor="middle" x="135.56" y="-676.54" font-family="Helvetica,sans-Serif" font-size="14.00">True</text>
</g>
<!-- 2 -->
<g id="node3" class="node">
<title>2</title>
<polygon fill="#fafefc" stroke="black" points="362.5,-663 194.5,-663 194.5,-580 362.5,-580 362.5,-663"/>
<text text-anchor="middle" x="278.5" y="-647.8" font-family="Helvetica,sans-Serif" font-size="14.00">petal length (cm) &lt;= 4.75</text>
<text text-anchor="middle" x="278.5" y="-632.8" font-family="Helvetica,sans-Serif" font-size="14.00">gini = 0.5</text>
<text text-anchor="middle" x="278.5" y="-617.8" font-family="Helvetica,sans-Serif" font-size="14.00">samples = 79</text>
<text text-anchor="middle" x="278.5" y="-602.8" font-family="Helvetica,sans-Serif" font-size="14.00">value = [0, 40, 39]</text>
<text text-anchor="middle" x="278.5" y="-587.8" font-family="Helvetica,sans-Serif" font-size="14.00">class = versicolor</text>
</g>
<!-- 0&#45;&gt;2 -->
<g id="edge2" class="edge">
<title>0&#45;&gt;2</title>
<path fill="none" stroke="black" d="M225.6,-698.91C231.76,-690.01 238.34,-680.51 244.69,-671.33"/>
<polygon fill="black" stroke="black" points="247.63,-673.24 250.45,-663.02 241.88,-669.25 247.63,-673.24"/>
<text text-anchor="middle" x="254.92" y="-683.92" font-family="Helvetica,sans-Serif" font-size="14.00">False</text>
</g>
<!-- 3 -->
<g id="node4" class="node">
<title>3</title>
<polygon fill="#3fe685" stroke="black" points="268,-544 113,-544 113,-461 268,-461 268,-544"/>
<text text-anchor="middle" x="190.5" y="-528.8" font-family="Helvetica,sans-Serif" font-size="14.00">petal width (cm) &lt;= 1.6</text>
<text text-anchor="middle" x="190.5" y="-513.8" font-family="Helvetica,sans-Serif" font-size="14.00">gini = 0.056</text>
<text text-anchor="middle" x="190.5" y="-498.8" font-family="Helvetica,sans-Serif" font-size="14.00">samples = 35</text>
<text text-anchor="middle" x="190.5" y="-483.8" font-family="Helvetica,sans-Serif" font-size="14.00">value = [0, 34, 1]</text>
<text text-anchor="middle" x="190.5" y="-468.8" font-family="Helvetica,sans-Serif" font-size="14.00">class = versicolor</text>
</g>
<!-- 2&#45;&gt;3 -->
<g id="edge3" class="edge">
<title>2&#45;&gt;3</title>
<path fill="none" stroke="black" d="M247.97,-579.91C241.21,-570.92 233.98,-561.32 227.02,-552.05"/>
<polygon fill="black" stroke="black" points="229.79,-549.91 220.98,-544.02 224.19,-554.12 229.79,-549.91"/>
</g>
<!-- 6 -->
<g id="node7" class="node">
<title>6</title>
<polygon fill="#9558e9" stroke="black" points="449,-544 286,-544 286,-461 449,-461 449,-544"/>
<text text-anchor="middle" x="367.5" y="-528.8" font-family="Helvetica,sans-Serif" font-size="14.00">petal width (cm) &lt;= 1.75</text>
<text text-anchor="middle" x="367.5" y="-513.8" font-family="Helvetica,sans-Serif" font-size="14.00">gini = 0.236</text>
<text text-anchor="middle" x="367.5" y="-498.8" font-family="Helvetica,sans-Serif" font-size="14.00">samples = 44</text>
<text text-anchor="middle" x="367.5" y="-483.8" font-family="Helvetica,sans-Serif" font-size="14.00">value = [0, 6, 38]</text>
<text text-anchor="middle" x="367.5" y="-468.8" font-family="Helvetica,sans-Serif" font-size="14.00">class = virginica</text>
</g>
<!-- 2&#45;&gt;6 -->
<g id="edge6" class="edge">
<title>2&#45;&gt;6</title>
<path fill="none" stroke="black" d="M309.38,-579.91C316.21,-570.92 323.52,-561.32 330.57,-552.05"/>
<polygon fill="black" stroke="black" points="333.41,-554.1 336.68,-544.02 327.84,-549.86 333.41,-554.1"/>
</g>
<!-- 4 -->
<g id="node5" class="node">
<title>4</title>
<polygon fill="#39e581" stroke="black" points="121,-417.5 0,-417.5 0,-349.5 121,-349.5 121,-417.5"/>
<text text-anchor="middle" x="60.5" y="-402.3" font-family="Helvetica,sans-Serif" font-size="14.00">gini = 0.0</text>
<text text-anchor="middle" x="60.5" y="-387.3" font-family="Helvetica,sans-Serif" font-size="14.00">samples = 34</text>
<text text-anchor="middle" x="60.5" y="-372.3" font-family="Helvetica,sans-Serif" font-size="14.00">value = [0, 34, 0]</text>
<text text-anchor="middle" x="60.5" y="-357.3" font-family="Helvetica,sans-Serif" font-size="14.00">class = versicolor</text>
</g>
<!-- 3&#45;&gt;4 -->
<g id="edge4" class="edge">
<title>3&#45;&gt;4</title>
<path fill="none" stroke="black" d="M145.4,-460.91C132.28,-449.1 117.96,-436.22 104.89,-424.45"/>
<polygon fill="black" stroke="black" points="107.13,-421.76 97.35,-417.67 102.44,-426.96 107.13,-421.76"/>
</g>
<!-- 5 -->
<g id="node6" class="node">
<title>5</title>
<polygon fill="#8139e5" stroke="black" points="252,-417.5 139,-417.5 139,-349.5 252,-349.5 252,-417.5"/>
<text text-anchor="middle" x="195.5" y="-402.3" font-family="Helvetica,sans-Serif" font-size="14.00">gini = 0.0</text>
<text text-anchor="middle" x="195.5" y="-387.3" font-family="Helvetica,sans-Serif" font-size="14.00">samples = 1</text>
<text text-anchor="middle" x="195.5" y="-372.3" font-family="Helvetica,sans-Serif" font-size="14.00">value = [0, 0, 1]</text>
<text text-anchor="middle" x="195.5" y="-357.3" font-family="Helvetica,sans-Serif" font-size="14.00">class = virginica</text>
</g>
<!-- 3&#45;&gt;5 -->
<g id="edge5" class="edge">
<title>3&#45;&gt;5</title>
<path fill="none" stroke="black" d="M192.23,-460.91C192.69,-450.2 193.19,-438.62 193.65,-427.78"/>
<polygon fill="black" stroke="black" points="197.15,-427.81 194.08,-417.67 190.16,-427.51 197.15,-427.81"/>
</g>
<!-- 7 -->
<g id="node8" class="node">
<title>7</title>
<polygon fill="#88efb3" stroke="black" points="449,-425 278,-425 278,-342 449,-342 449,-425"/>
<text text-anchor="middle" x="363.5" y="-409.8" font-family="Helvetica,sans-Serif" font-size="14.00">sepal length (cm) &lt;= 7.05</text>
<text text-anchor="middle" x="363.5" y="-394.8" font-family="Helvetica,sans-Serif" font-size="14.00">gini = 0.408</text>
<text text-anchor="middle" x="363.5" y="-379.8" font-family="Helvetica,sans-Serif" font-size="14.00">samples = 7</text>
<text text-anchor="middle" x="363.5" y="-364.8" font-family="Helvetica,sans-Serif" font-size="14.00">value = [0, 5, 2]</text>
<text text-anchor="middle" x="363.5" y="-349.8" font-family="Helvetica,sans-Serif" font-size="14.00">class = versicolor</text>
</g>
<!-- 6&#45;&gt;7 -->
<g id="edge7" class="edge">
<title>6&#45;&gt;7</title>
<path fill="none" stroke="black" d="M366.11,-460.91C365.83,-452.56 365.52,-443.67 365.23,-435.02"/>
<polygon fill="black" stroke="black" points="368.73,-434.9 364.89,-425.02 361.73,-435.13 368.73,-434.9"/>
</g>
<!-- 14 -->
<g id="node15" class="node">
<title>14</title>
<polygon fill="#843ee6" stroke="black" points="638,-425 467,-425 467,-342 638,-342 638,-425"/>
<text text-anchor="middle" x="552.5" y="-409.8" font-family="Helvetica,sans-Serif" font-size="14.00">sepal length (cm) &lt;= 5.95</text>
<text text-anchor="middle" x="552.5" y="-394.8" font-family="Helvetica,sans-Serif" font-size="14.00">gini = 0.053</text>
<text text-anchor="middle" x="552.5" y="-379.8" font-family="Helvetica,sans-Serif" font-size="14.00">samples = 37</text>
<text text-anchor="middle" x="552.5" y="-364.8" font-family="Helvetica,sans-Serif" font-size="14.00">value = [0, 1, 36]</text>
<text text-anchor="middle" x="552.5" y="-349.8" font-family="Helvetica,sans-Serif" font-size="14.00">class = virginica</text>
</g>
<!-- 6&#45;&gt;14 -->
<g id="edge14" class="edge">
<title>6&#45;&gt;14</title>
<path fill="none" stroke="black" d="M431.68,-460.91C447.18,-451.11 463.85,-440.56 479.71,-430.53"/>
<polygon fill="black" stroke="black" points="481.85,-433.32 488.43,-425.02 478.11,-427.41 481.85,-433.32"/>
</g>
<!-- 8 -->
<g id="node9" class="node">
<title>8</title>
<polygon fill="#61ea9a" stroke="black" points="296.5,-306 132.5,-306 132.5,-223 296.5,-223 296.5,-306"/>
<text text-anchor="middle" x="214.5" y="-290.8" font-family="Helvetica,sans-Serif" font-size="14.00">sepal length (cm) &lt;= 6.2</text>
<text text-anchor="middle" x="214.5" y="-275.8" font-family="Helvetica,sans-Serif" font-size="14.00">gini = 0.278</text>
<text text-anchor="middle" x="214.5" y="-260.8" font-family="Helvetica,sans-Serif" font-size="14.00">samples = 6</text>
<text text-anchor="middle" x="214.5" y="-245.8" font-family="Helvetica,sans-Serif" font-size="14.00">value = [0, 5, 1]</text>
<text text-anchor="middle" x="214.5" y="-230.8" font-family="Helvetica,sans-Serif" font-size="14.00">class = versicolor</text>
</g>
<!-- 7&#45;&gt;8 -->
<g id="edge8" class="edge">
<title>7&#45;&gt;8</title>
<path fill="none" stroke="black" d="M311.81,-341.91C299.67,-332.38 286.64,-322.15 274.19,-312.37"/>
<polygon fill="black" stroke="black" points="276.13,-309.44 266.1,-306.02 271.81,-314.95 276.13,-309.44"/>
</g>
<!-- 13 -->
<g id="node14" class="node">
<title>13</title>
<polygon fill="#8139e5" stroke="black" points="428,-298.5 315,-298.5 315,-230.5 428,-230.5 428,-298.5"/>
<text text-anchor="middle" x="371.5" y="-283.3" font-family="Helvetica,sans-Serif" font-size="14.00">gini = 0.0</text>
<text text-anchor="middle" x="371.5" y="-268.3" font-family="Helvetica,sans-Serif" font-size="14.00">samples = 1</text>
<text text-anchor="middle" x="371.5" y="-253.3" font-family="Helvetica,sans-Serif" font-size="14.00">value = [0, 0, 1]</text>
<text text-anchor="middle" x="371.5" y="-238.3" font-family="Helvetica,sans-Serif" font-size="14.00">class = virginica</text>
</g>
<!-- 7&#45;&gt;13 -->
<g id="edge13" class="edge">
<title>7&#45;&gt;13</title>
<path fill="none" stroke="black" d="M366.28,-341.91C367.01,-331.2 367.8,-319.62 368.54,-308.78"/>
<polygon fill="black" stroke="black" points="372.04,-308.88 369.23,-298.67 365.06,-308.4 372.04,-308.88"/>
</g>
<!-- 9 -->
<g id="node10" class="node">
<title>9</title>
<polygon fill="#ffffff" stroke="black" points="242,-187 71,-187 71,-104 242,-104 242,-187"/>
<text text-anchor="middle" x="156.5" y="-171.8" font-family="Helvetica,sans-Serif" font-size="14.00">sepal length (cm) &lt;= 6.05</text>
<text text-anchor="middle" x="156.5" y="-156.8" font-family="Helvetica,sans-Serif" font-size="14.00">gini = 0.5</text>
<text text-anchor="middle" x="156.5" y="-141.8" font-family="Helvetica,sans-Serif" font-size="14.00">samples = 2</text>
<text text-anchor="middle" x="156.5" y="-126.8" font-family="Helvetica,sans-Serif" font-size="14.00">value = [0, 1, 1]</text>
<text text-anchor="middle" x="156.5" y="-111.8" font-family="Helvetica,sans-Serif" font-size="14.00">class = versicolor</text>
</g>
<!-- 8&#45;&gt;9 -->
<g id="edge9" class="edge">
<title>8&#45;&gt;9</title>
<path fill="none" stroke="black" d="M194.38,-222.91C190.1,-214.29 185.54,-205.09 181.13,-196.17"/>
<polygon fill="black" stroke="black" points="184.16,-194.43 176.59,-187.02 177.89,-197.53 184.16,-194.43"/>
</g>
<!-- 12 -->
<g id="node13" class="node">
<title>12</title>
<polygon fill="#39e581" stroke="black" points="381,-179.5 260,-179.5 260,-111.5 381,-111.5 381,-179.5"/>
<text text-anchor="middle" x="320.5" y="-164.3" font-family="Helvetica,sans-Serif" font-size="14.00">gini = 0.0</text>
<text text-anchor="middle" x="320.5" y="-149.3" font-family="Helvetica,sans-Serif" font-size="14.00">samples = 4</text>
<text text-anchor="middle" x="320.5" y="-134.3" font-family="Helvetica,sans-Serif" font-size="14.00">value = [0, 4, 0]</text>
<text text-anchor="middle" x="320.5" y="-119.3" font-family="Helvetica,sans-Serif" font-size="14.00">class = versicolor</text>
</g>
<!-- 8&#45;&gt;12 -->
<g id="edge12" class="edge">
<title>8&#45;&gt;12</title>
<path fill="none" stroke="black" d="M251.28,-222.91C261.77,-211.32 273.21,-198.7 283.71,-187.11"/>
<polygon fill="black" stroke="black" points="286.33,-189.43 290.45,-179.67 281.14,-184.73 286.33,-189.43"/>
</g>
<!-- 10 -->
<g id="node11" class="node">
<title>10</title>
<polygon fill="#39e581" stroke="black" points="150,-68 29,-68 29,0 150,0 150,-68"/>
<text text-anchor="middle" x="89.5" y="-52.8" font-family="Helvetica,sans-Serif" font-size="14.00">gini = 0.0</text>
<text text-anchor="middle" x="89.5" y="-37.8" font-family="Helvetica,sans-Serif" font-size="14.00">samples = 1</text>
<text text-anchor="middle" x="89.5" y="-22.8" font-family="Helvetica,sans-Serif" font-size="14.00">value = [0, 1, 0]</text>
<text text-anchor="middle" x="89.5" y="-7.8" font-family="Helvetica,sans-Serif" font-size="14.00">class = versicolor</text>
</g>
<!-- 9&#45;&gt;10 -->
<g id="edge10" class="edge">
<title>9&#45;&gt;10</title>
<path fill="none" stroke="black" d="M131.55,-103.73C126.19,-94.97 120.52,-85.7 115.14,-76.91"/>
<polygon fill="black" stroke="black" points="118.08,-75 109.88,-68.3 112.11,-78.66 118.08,-75"/>
</g>
<!-- 11 -->
<g id="node12" class="node">
<title>11</title>
<polygon fill="#8139e5" stroke="black" points="281,-68 168,-68 168,0 281,0 281,-68"/>
<text text-anchor="middle" x="224.5" y="-52.8" font-family="Helvetica,sans-Serif" font-size="14.00">gini = 0.0</text>
<text text-anchor="middle" x="224.5" y="-37.8" font-family="Helvetica,sans-Serif" font-size="14.00">samples = 1</text>
<text text-anchor="middle" x="224.5" y="-22.8" font-family="Helvetica,sans-Serif" font-size="14.00">value = [0, 0, 1]</text>
<text text-anchor="middle" x="224.5" y="-7.8" font-family="Helvetica,sans-Serif" font-size="14.00">class = virginica</text>
</g>
<!-- 9&#45;&gt;11 -->
<g id="edge11" class="edge">
<title>9&#45;&gt;11</title>
<path fill="none" stroke="black" d="M181.82,-103.73C187.26,-94.97 193.01,-85.7 198.48,-76.91"/>
<polygon fill="black" stroke="black" points="201.52,-78.64 203.82,-68.3 195.57,-74.95 201.52,-78.64"/>
</g>
<!-- 15 -->
<g id="node16" class="node">
<title>15</title>
<polygon fill="#ab7bee" stroke="black" points="631,-306 460,-306 460,-223 631,-223 631,-306"/>
<text text-anchor="middle" x="545.5" y="-290.8" font-family="Helvetica,sans-Serif" font-size="14.00">sepal length (cm) &lt;= 5.85</text>
<text text-anchor="middle" x="545.5" y="-275.8" font-family="Helvetica,sans-Serif" font-size="14.00">gini = 0.375</text>
<text text-anchor="middle" x="545.5" y="-260.8" font-family="Helvetica,sans-Serif" font-size="14.00">samples = 4</text>
<text text-anchor="middle" x="545.5" y="-245.8" font-family="Helvetica,sans-Serif" font-size="14.00">value = [0, 1, 3]</text>
<text text-anchor="middle" x="545.5" y="-230.8" font-family="Helvetica,sans-Serif" font-size="14.00">class = virginica</text>
</g>
<!-- 14&#45;&gt;15 -->
<g id="edge15" class="edge">
<title>14&#45;&gt;15</title>
<path fill="none" stroke="black" d="M550.07,-341.91C549.57,-333.56 549.04,-324.67 548.52,-316.02"/>
<polygon fill="black" stroke="black" points="552.02,-315.79 547.92,-306.02 545.03,-316.21 552.02,-315.79"/>
</g>
<!-- 18 -->
<g id="node19" class="node">
<title>18</title>
<polygon fill="#8139e5" stroke="black" points="766,-298.5 649,-298.5 649,-230.5 766,-230.5 766,-298.5"/>
<text text-anchor="middle" x="707.5" y="-283.3" font-family="Helvetica,sans-Serif" font-size="14.00">gini = 0.0</text>
<text text-anchor="middle" x="707.5" y="-268.3" font-family="Helvetica,sans-Serif" font-size="14.00">samples = 33</text>
<text text-anchor="middle" x="707.5" y="-253.3" font-family="Helvetica,sans-Serif" font-size="14.00">value = [0, 0, 33]</text>
<text text-anchor="middle" x="707.5" y="-238.3" font-family="Helvetica,sans-Serif" font-size="14.00">class = virginica</text>
</g>
<!-- 14&#45;&gt;18 -->
<g id="edge18" class="edge">
<title>14&#45;&gt;18</title>
<path fill="none" stroke="black" d="M606.28,-341.91C622.21,-329.88 639.63,-316.73 655.45,-304.79"/>
<polygon fill="black" stroke="black" points="657.69,-307.49 663.56,-298.67 653.47,-301.9 657.69,-307.49"/>
</g>
<!-- 16 -->
<g id="node17" class="node">
<title>16</title>
<polygon fill="#8139e5" stroke="black" points="557,-179.5 444,-179.5 444,-111.5 557,-111.5 557,-179.5"/>
<text text-anchor="middle" x="500.5" y="-164.3" font-family="Helvetica,sans-Serif" font-size="14.00">gini = 0.0</text>
<text text-anchor="middle" x="500.5" y="-149.3" font-family="Helvetica,sans-Serif" font-size="14.00">samples = 3</text>
<text text-anchor="middle" x="500.5" y="-134.3" font-family="Helvetica,sans-Serif" font-size="14.00">value = [0, 0, 3]</text>
<text text-anchor="middle" x="500.5" y="-119.3" font-family="Helvetica,sans-Serif" font-size="14.00">class = virginica</text>
</g>
<!-- 15&#45;&gt;16 -->
<g id="edge16" class="edge">
<title>15&#45;&gt;16</title>
<path fill="none" stroke="black" d="M529.89,-222.91C525.69,-211.98 521.13,-200.14 516.89,-189.11"/>
<polygon fill="black" stroke="black" points="520.11,-187.74 513.26,-179.67 513.58,-190.26 520.11,-187.74"/>
</g>
<!-- 17 -->
<g id="node18" class="node">
<title>17</title>
<polygon fill="#39e581" stroke="black" points="696,-179.5 575,-179.5 575,-111.5 696,-111.5 696,-179.5"/>
<text text-anchor="middle" x="635.5" y="-164.3" font-family="Helvetica,sans-Serif" font-size="14.00">gini = 0.0</text>
<text text-anchor="middle" x="635.5" y="-149.3" font-family="Helvetica,sans-Serif" font-size="14.00">samples = 1</text>
<text text-anchor="middle" x="635.5" y="-134.3" font-family="Helvetica,sans-Serif" font-size="14.00">value = [0, 1, 0]</text>
<text text-anchor="middle" x="635.5" y="-119.3" font-family="Helvetica,sans-Serif" font-size="14.00">class = versicolor</text>
</g>
<!-- 15&#45;&gt;17 -->
<g id="edge17" class="edge">
<title>15&#45;&gt;17</title>
<path fill="none" stroke="black" d="M576.73,-222.91C585.47,-211.54 594.98,-199.18 603.75,-187.77"/>
<polygon fill="black" stroke="black" points="606.66,-189.73 609.99,-179.67 601.12,-185.46 606.66,-189.73"/>
</g>
</g>
</svg>
