<?xml version="1.0" encoding="UTF-8" standalone="no"?>
<!DOCTYPE svg PUBLIC "-//W3C//DTD SVG 1.1//EN"
 "http://www.w3.org/Graphics/SVG/1.1/DTD/svg11.dtd">
<!-- Generated by graphviz version 2.50.0 (0)
 -->
<!-- Title: Tree Pages: 1 -->
<svg width="650pt" height="552pt"
 viewBox="0.00 0.00 650.00 552.00" xmlns="http://www.w3.org/2000/svg" xmlns:xlink="http://www.w3.org/1999/xlink">
<g id="graph0" class="graph" transform="scale(1 1) rotate(0) translate(4 548)">
<title>Tree</title>
<polygon fill="white" stroke="transparent" points="-4,4 -4,-548 646,-548 646,4 -4,4"/>
<!-- 0 -->
<g id="node1" class="node">
<title>0</title>
<polygon fill="#fffdfd" stroke="black" points="279.5,-544 111.5,-544 111.5,-461 279.5,-461 279.5,-544"/>
<text text-anchor="middle" x="195.5" y="-528.8" font-family="Helvetica,sans-Serif" font-size="14.00">petal length (cm) &lt;= 2.45</text>
<text text-anchor="middle" x="195.5" y="-513.8" font-family="Helvetica,sans-Serif" font-size="14.00">gini = 0.667</text>
<text text-anchor="middle" x="195.5" y="-498.8" font-family="Helvetica,sans-Serif" font-size="14.00">samples = 120</text>
<text text-anchor="middle" x="195.5" y="-483.8" font-family="Helvetica,sans-Serif" font-size="14.00">value = [41, 40, 39]</text>
<text text-anchor="middle" x="195.5" y="-468.8" font-family="Helvetica,sans-Serif" font-size="14.00">class = setosa</text>
</g>
<!-- 1 -->
<g id="node2" class="node">
<title>1</title>
<polygon fill="#e58139" stroke="black" points="175,-417.5 58,-417.5 58,-349.5 175,-349.5 175,-417.5"/>
<text text-anchor="middle" x="116.5" y="-402.3" font-family="Helvetica,sans-Serif" font-size="14.00">gini = 0.0</text>
<text text-anchor="middle" x="116.5" y="-387.3" font-family="Helvetica,sans-Serif" font-size="14.00">samples = 41</text>
<text text-anchor="middle" x="116.5" y="-372.3" font-family="Helvetica,sans-Serif" font-size="14.00">value = [41, 0, 0]</text>
<text text-anchor="middle" x="116.5" y="-357.3" font-family="Helvetica,sans-Serif" font-size="14.00">class = setosa</text>
</g>
<!-- 0&#45;&gt;1 -->
<g id="edge1" class="edge">
<title>0&#45;&gt;1</title>
<path fill="none" stroke="black" d="M168.09,-460.91C160.49,-449.65 152.23,-437.42 144.59,-426.11"/>
<polygon fill="black" stroke="black" points="147.39,-424 138.89,-417.67 141.59,-427.91 147.39,-424"/>
<text text-anchor="middle" x="134.14" y="-438.51" font-family="Helvetica,sans-Serif" font-size="14.00">True</text>
</g>
<!-- 2 -->
<g id="node3" class="node">
<title>2</title>
<polygon fill="#fafefc" stroke="black" points="356,-425 193,-425 193,-342 356,-342 356,-425"/>
<text text-anchor="middle" x="274.5" y="-409.8" font-family="Helvetica,sans-Serif" font-size="14.00">petal width (cm) &lt;= 1.55</text>
<text text-anchor="middle" x="274.5" y="-394.8" font-family="Helvetica,sans-Serif" font-size="14.00">gini = 0.5</text>
<text text-anchor="middle" x="274.5" y="-379.8" font-family="Helvetica,sans-Serif" font-size="14.00">samples = 79</text>
<text text-anchor="middle" x="274.5" y="-364.8" font-family="Helvetica,sans-Serif" font-size="14.00">value = [0, 40, 39]</text>
<text text-anchor="middle" x="274.5" y="-349.8" font-family="Helvetica,sans-Serif" font-size="14.00">class = versicolor</text>
</g>
<!-- 0&#45;&gt;2 -->
<g id="edge2" class="edge">
<title>0&#45;&gt;2</title>
<path fill="none" stroke="black" d="M222.91,-460.91C228.91,-452.01 235.33,-442.51 241.53,-433.33"/>
<polygon fill="black" stroke="black" points="244.44,-435.27 247.14,-425.02 238.64,-431.35 244.44,-435.27"/>
<text text-anchor="middle" x="251.9" y="-445.86" font-family="Helvetica,sans-Serif" font-size="14.00">False</text>
</g>
<!-- 3 -->
<g id="node4" class="node">
<title>3</title>
<polygon fill="#3ee684" stroke="black" points="266.5,-306 98.5,-306 98.5,-223 266.5,-223 266.5,-306"/>
<text text-anchor="middle" x="182.5" y="-290.8" font-family="Helvetica,sans-Serif" font-size="14.00">petal length (cm) &lt;= 5.25</text>
<text text-anchor="middle" x="182.5" y="-275.8" font-family="Helvetica,sans-Serif" font-size="14.00">gini = 0.051</text>
<text text-anchor="middle" x="182.5" y="-260.8" font-family="Helvetica,sans-Serif" font-size="14.00">samples = 38</text>
<text text-anchor="middle" x="182.5" y="-245.8" font-family="Helvetica,sans-Serif" font-size="14.00">value = [0, 37, 1]</text>
<text text-anchor="middle" x="182.5" y="-230.8" font-family="Helvetica,sans-Serif" font-size="14.00">class = versicolor</text>
</g>
<!-- 2&#45;&gt;3 -->
<g id="edge3" class="edge">
<title>2&#45;&gt;3</title>
<path fill="none" stroke="black" d="M242.58,-341.91C235.52,-332.92 227.96,-323.32 220.68,-314.05"/>
<polygon fill="black" stroke="black" points="223.3,-311.72 214.36,-306.02 217.79,-316.05 223.3,-311.72"/>
</g>
<!-- 6 -->
<g id="node7" class="node">
<title>6</title>
<polygon fill="#8b49e7" stroke="black" points="448,-306 285,-306 285,-223 448,-223 448,-306"/>
<text text-anchor="middle" x="366.5" y="-290.8" font-family="Helvetica,sans-Serif" font-size="14.00">petal width (cm) &lt;= 1.75</text>
<text text-anchor="middle" x="366.5" y="-275.8" font-family="Helvetica,sans-Serif" font-size="14.00">gini = 0.136</text>
<text text-anchor="middle" x="366.5" y="-260.8" font-family="Helvetica,sans-Serif" font-size="14.00">samples = 41</text>
<text text-anchor="middle" x="366.5" y="-245.8" font-family="Helvetica,sans-Serif" font-size="14.00">value = [0, 3, 38]</text>
<text text-anchor="middle" x="366.5" y="-230.8" font-family="Helvetica,sans-Serif" font-size="14.00">class = virginica</text>
</g>
<!-- 2&#45;&gt;6 -->
<g id="edge6" class="edge">
<title>2&#45;&gt;6</title>
<path fill="none" stroke="black" d="M306.42,-341.91C313.48,-332.92 321.04,-323.32 328.32,-314.05"/>
<polygon fill="black" stroke="black" points="331.21,-316.05 334.64,-306.02 325.7,-311.72 331.21,-316.05"/>
</g>
<!-- 4 -->
<g id="node5" class="node">
<title>4</title>
<polygon fill="#39e581" stroke="black" points="121,-179.5 0,-179.5 0,-111.5 121,-111.5 121,-179.5"/>
<text text-anchor="middle" x="60.5" y="-164.3" font-family="Helvetica,sans-Serif" font-size="14.00">gini = 0.0</text>
<text text-anchor="middle" x="60.5" y="-149.3" font-family="Helvetica,sans-Serif" font-size="14.00">samples = 37</text>
<text text-anchor="middle" x="60.5" y="-134.3" font-family="Helvetica,sans-Serif" font-size="14.00">value = [0, 37, 0]</text>
<text text-anchor="middle" x="60.5" y="-119.3" font-family="Helvetica,sans-Serif" font-size="14.00">class = versicolor</text>
</g>
<!-- 3&#45;&gt;4 -->
<g id="edge4" class="edge">
<title>3&#45;&gt;4</title>
<path fill="none" stroke="black" d="M140.17,-222.91C127.98,-211.21 114.68,-198.46 102.5,-186.78"/>
<polygon fill="black" stroke="black" points="104.72,-184.06 95.08,-179.67 99.88,-189.11 104.72,-184.06"/>
</g>
<!-- 5 -->
<g id="node6" class="node">
<title>5</title>
<polygon fill="#8139e5" stroke="black" points="252,-179.5 139,-179.5 139,-111.5 252,-111.5 252,-179.5"/>
<text text-anchor="middle" x="195.5" y="-164.3" font-family="Helvetica,sans-Serif" font-size="14.00">gini = 0.0</text>
<text text-anchor="middle" x="195.5" y="-149.3" font-family="Helvetica,sans-Serif" font-size="14.00">samples = 1</text>
<text text-anchor="middle" x="195.5" y="-134.3" font-family="Helvetica,sans-Serif" font-size="14.00">value = [0, 0, 1]</text>
<text text-anchor="middle" x="195.5" y="-119.3" font-family="Helvetica,sans-Serif" font-size="14.00">class = virginica</text>
</g>
<!-- 3&#45;&gt;5 -->
<g id="edge5" class="edge">
<title>3&#45;&gt;5</title>
<path fill="none" stroke="black" d="M187.01,-222.91C188.2,-212.2 189.49,-200.62 190.69,-189.78"/>
<polygon fill="black" stroke="black" points="194.19,-189.99 191.81,-179.67 187.23,-189.22 194.19,-189.99"/>
</g>
<!-- 7 -->
<g id="node8" class="node">
<title>7</title>
<polygon fill="#ffffff" stroke="black" points="415,-179.5 294,-179.5 294,-111.5 415,-111.5 415,-179.5"/>
<text text-anchor="middle" x="354.5" y="-164.3" font-family="Helvetica,sans-Serif" font-size="14.00">gini = 0.5</text>
<text text-anchor="middle" x="354.5" y="-149.3" font-family="Helvetica,sans-Serif" font-size="14.00">samples = 4</text>
<text text-anchor="middle" x="354.5" y="-134.3" font-family="Helvetica,sans-Serif" font-size="14.00">value = [0, 2, 2]</text>
<text text-anchor="middle" x="354.5" y="-119.3" font-family="Helvetica,sans-Serif" font-size="14.00">class = versicolor</text>
</g>
<!-- 6&#45;&gt;7 -->
<g id="edge7" class="edge">
<title>6&#45;&gt;7</title>
<path fill="none" stroke="black" d="M362.34,-222.91C361.24,-212.2 360.05,-200.62 358.94,-189.78"/>
<polygon fill="black" stroke="black" points="362.4,-189.26 357.9,-179.67 355.44,-189.97 362.4,-189.26"/>
</g>
<!-- 8 -->
<g id="node9" class="node">
<title>8</title>
<polygon fill="#843ee6" stroke="black" points="601.5,-187 433.5,-187 433.5,-104 601.5,-104 601.5,-187"/>
<text text-anchor="middle" x="517.5" y="-171.8" font-family="Helvetica,sans-Serif" font-size="14.00">petal length (cm) &lt;= 4.85</text>
<text text-anchor="middle" x="517.5" y="-156.8" font-family="Helvetica,sans-Serif" font-size="14.00">gini = 0.053</text>
<text text-anchor="middle" x="517.5" y="-141.8" font-family="Helvetica,sans-Serif" font-size="14.00">samples = 37</text>
<text text-anchor="middle" x="517.5" y="-126.8" font-family="Helvetica,sans-Serif" font-size="14.00">value = [0, 1, 36]</text>
<text text-anchor="middle" x="517.5" y="-111.8" font-family="Helvetica,sans-Serif" font-size="14.00">class = virginica</text>
</g>
<!-- 6&#45;&gt;8 -->
<g id="edge8" class="edge">
<title>6&#45;&gt;8</title>
<path fill="none" stroke="black" d="M418.89,-222.91C431.19,-213.38 444.39,-203.15 457.01,-193.37"/>
<polygon fill="black" stroke="black" points="459.44,-195.91 465.2,-187.02 455.16,-190.38 459.44,-195.91"/>
</g>
<!-- 9 -->
<g id="node10" class="node">
<title>9</title>
<polygon fill="#c09cf2" stroke="black" points="507,-68 394,-68 394,0 507,0 507,-68"/>
<text text-anchor="middle" x="450.5" y="-52.8" font-family="Helvetica,sans-Serif" font-size="14.00">gini = 0.444</text>
<text text-anchor="middle" x="450.5" y="-37.8" font-family="Helvetica,sans-Serif" font-size="14.00">samples = 3</text>
<text text-anchor="middle" x="450.5" y="-22.8" font-family="Helvetica,sans-Serif" font-size="14.00">value = [0, 1, 2]</text>
<text text-anchor="middle" x="450.5" y="-7.8" font-family="Helvetica,sans-Serif" font-size="14.00">class = virginica</text>
</g>
<!-- 8&#45;&gt;9 -->
<g id="edge9" class="edge">
<title>8&#45;&gt;9</title>
<path fill="none" stroke="black" d="M492.55,-103.73C487.19,-94.97 481.52,-85.7 476.14,-76.91"/>
<polygon fill="black" stroke="black" points="479.08,-75 470.88,-68.3 473.11,-78.66 479.08,-75"/>
</g>
<!-- 10 -->
<g id="node11" class="node">
<title>10</title>
<polygon fill="#8139e5" stroke="black" points="642,-68 525,-68 525,0 642,0 642,-68"/>
<text text-anchor="middle" x="583.5" y="-52.8" font-family="Helvetica,sans-Serif" font-size="14.00">gini = 0.0</text>
<text text-anchor="middle" x="583.5" y="-37.8" font-family="Helvetica,sans-Serif" font-size="14.00">samples = 34</text>
<text text-anchor="middle" x="583.5" y="-22.8" font-family="Helvetica,sans-Serif" font-size="14.00">value = [0, 0, 34]</text>
<text text-anchor="middle" x="583.5" y="-7.8" font-family="Helvetica,sans-Serif" font-size="14.00">class = virginica</text>
</g>
<!-- 8&#45;&gt;10 -->
<g id="edge10" class="edge">
<title>8&#45;&gt;10</title>
<path fill="none" stroke="black" d="M542.08,-103.73C547.35,-94.97 552.94,-85.7 558.24,-76.91"/>
<polygon fill="black" stroke="black" points="561.26,-78.67 563.43,-68.3 555.27,-75.06 561.26,-78.67"/>
</g>
</g>
</svg>
