<?xml version="1.0" encoding="UTF-8" standalone="no"?>
<!DOCTYPE svg PUBLIC "-//W3C//DTD SVG 1.1//EN"
 "http://www.w3.org/Graphics/SVG/1.1/DTD/svg11.dtd">
<!-- Generated by graphviz version 2.50.0 (0)
 -->
<!-- Title: Tree Pages: 1 -->
<svg width="784pt" height="671pt"
 viewBox="0.00 0.00 784.00 671.00" xmlns="http://www.w3.org/2000/svg" xmlns:xlink="http://www.w3.org/1999/xlink">
<g id="graph0" class="graph" transform="scale(1 1) rotate(0) translate(4 667)">
<title>Tree</title>
<polygon fill="white" stroke="transparent" points="-4,4 -4,-667 780,-667 780,4 -4,4"/>
<!-- 0 -->
<g id="node1" class="node">
<title>0</title>
<polygon fill="#fffdfd" stroke="black" points="279,-663 124,-663 124,-580 279,-580 279,-663"/>
<text text-anchor="middle" x="201.5" y="-647.8" font-family="Helvetica,sans-Serif" font-size="14.00">petal width (cm) &lt;= 0.8</text>
<text text-anchor="middle" x="201.5" y="-632.8" font-family="Helvetica,sans-Serif" font-size="14.00">gini = 0.667</text>
<text text-anchor="middle" x="201.5" y="-617.8" font-family="Helvetica,sans-Serif" font-size="14.00">samples = 120</text>
<text text-anchor="middle" x="201.5" y="-602.8" font-family="Helvetica,sans-Serif" font-size="14.00">value = [41, 40, 39]</text>
<text text-anchor="middle" x="201.5" y="-587.8" font-family="Helvetica,sans-Serif" font-size="14.00">class = setosa</text>
</g>
<!-- 1 -->
<g id="node2" class="node">
<title>1</title>
<polygon fill="#e58139" stroke="black" points="181,-536.5 64,-536.5 64,-468.5 181,-468.5 181,-536.5"/>
<text text-anchor="middle" x="122.5" y="-521.3" font-family="Helvetica,sans-Serif" font-size="14.00">gini = 0.0</text>
<text text-anchor="middle" x="122.5" y="-506.3" font-family="Helvetica,sans-Serif" font-size="14.00">samples = 41</text>
<text text-anchor="middle" x="122.5" y="-491.3" font-family="Helvetica,sans-Serif" font-size="14.00">value = [41, 0, 0]</text>
<text text-anchor="middle" x="122.5" y="-476.3" font-family="Helvetica,sans-Serif" font-size="14.00">class = setosa</text>
</g>
<!-- 0&#45;&gt;1 -->
<g id="edge1" class="edge">
<title>0&#45;&gt;1</title>
<path fill="none" stroke="black" d="M174.09,-579.91C166.49,-568.65 158.23,-556.42 150.59,-545.11"/>
<polygon fill="black" stroke="black" points="153.39,-543 144.89,-536.67 147.59,-546.91 153.39,-543"/>
<text text-anchor="middle" x="140.14" y="-557.51" font-family="Helvetica,sans-Serif" font-size="14.00">True</text>
</g>
<!-- 2 -->
<g id="node3" class="node">
<title>2</title>
<polygon fill="#fafefc" stroke="black" points="362,-544 199,-544 199,-461 362,-461 362,-544"/>
<text text-anchor="middle" x="280.5" y="-528.8" font-family="Helvetica,sans-Serif" font-size="14.00">petal width (cm) &lt;= 1.55</text>
<text text-anchor="middle" x="280.5" y="-513.8" font-family="Helvetica,sans-Serif" font-size="14.00">gini = 0.5</text>
<text text-anchor="middle" x="280.5" y="-498.8" font-family="Helvetica,sans-Serif" font-size="14.00">samples = 79</text>
<text text-anchor="middle" x="280.5" y="-483.8" font-family="Helvetica,sans-Serif" font-size="14.00">value = [0, 40, 39]</text>
<text text-anchor="middle" x="280.5" y="-468.8" font-family="Helvetica,sans-Serif" font-size="14.00">class = versicolor</text>
</g>
<!-- 0&#45;&gt;2 -->
<g id="edge2" class="edge">
<title>0&#45;&gt;2</title>
<path fill="none" stroke="black" d="M228.91,-579.91C234.91,-571.01 241.33,-561.51 247.53,-552.33"/>
<polygon fill="black" stroke="black" points="250.44,-554.27 253.14,-544.02 244.64,-550.35 250.44,-554.27"/>
<text text-anchor="middle" x="257.9" y="-564.86" font-family="Helvetica,sans-Serif" font-size="14.00">False</text>
</g>
<!-- 3 -->
<g id="node4" class="node">
<title>3</title>
<polygon fill="#3ee684" stroke="black" points="272.5,-425 104.5,-425 104.5,-342 272.5,-342 272.5,-425"/>
<text text-anchor="middle" x="188.5" y="-409.8" font-family="Helvetica,sans-Serif" font-size="14.00">petal length (cm) &lt;= 5.25</text>
<text text-anchor="middle" x="188.5" y="-394.8" font-family="Helvetica,sans-Serif" font-size="14.00">gini = 0.051</text>
<text text-anchor="middle" x="188.5" y="-379.8" font-family="Helvetica,sans-Serif" font-size="14.00">samples = 38</text>
<text text-anchor="middle" x="188.5" y="-364.8" font-family="Helvetica,sans-Serif" font-size="14.00">value = [0, 37, 1]</text>
<text text-anchor="middle" x="188.5" y="-349.8" font-family="Helvetica,sans-Serif" font-size="14.00">class = versicolor</text>
</g>
<!-- 2&#45;&gt;3 -->
<g id="edge3" class="edge">
<title>2&#45;&gt;3</title>
<path fill="none" stroke="black" d="M248.58,-460.91C241.52,-451.92 233.96,-442.32 226.68,-433.05"/>
<polygon fill="black" stroke="black" points="229.3,-430.72 220.36,-425.02 223.79,-435.05 229.3,-430.72"/>
</g>
<!-- 6 -->
<g id="node7" class="node">
<title>6</title>
<polygon fill="#8b49e7" stroke="black" points="454,-425 291,-425 291,-342 454,-342 454,-425"/>
<text text-anchor="middle" x="372.5" y="-409.8" font-family="Helvetica,sans-Serif" font-size="14.00">petal width (cm) &lt;= 1.75</text>
<text text-anchor="middle" x="372.5" y="-394.8" font-family="Helvetica,sans-Serif" font-size="14.00">gini = 0.136</text>
<text text-anchor="middle" x="372.5" y="-379.8" font-family="Helvetica,sans-Serif" font-size="14.00">samples = 41</text>
<text text-anchor="middle" x="372.5" y="-364.8" font-family="Helvetica,sans-Serif" font-size="14.00">value = [0, 3, 38]</text>
<text text-anchor="middle" x="372.5" y="-349.8" font-family="Helvetica,sans-Serif" font-size="14.00">class = virginica</text>
</g>
<!-- 2&#45;&gt;6 -->
<g id="edge6" class="edge">
<title>2&#45;&gt;6</title>
<path fill="none" stroke="black" d="M312.42,-460.91C319.48,-451.92 327.04,-442.32 334.32,-433.05"/>
<polygon fill="black" stroke="black" points="337.21,-435.05 340.64,-425.02 331.7,-430.72 337.21,-435.05"/>
</g>
<!-- 4 -->
<g id="node5" class="node">
<title>4</title>
<polygon fill="#39e581" stroke="black" points="121,-298.5 0,-298.5 0,-230.5 121,-230.5 121,-298.5"/>
<text text-anchor="middle" x="60.5" y="-283.3" font-family="Helvetica,sans-Serif" font-size="14.00">gini = 0.0</text>
<text text-anchor="middle" x="60.5" y="-268.3" font-family="Helvetica,sans-Serif" font-size="14.00">samples = 37</text>
<text text-anchor="middle" x="60.5" y="-253.3" font-family="Helvetica,sans-Serif" font-size="14.00">value = [0, 37, 0]</text>
<text text-anchor="middle" x="60.5" y="-238.3" font-family="Helvetica,sans-Serif" font-size="14.00">class = versicolor</text>
</g>
<!-- 3&#45;&gt;4 -->
<g id="edge4" class="edge">
<title>3&#45;&gt;4</title>
<path fill="none" stroke="black" d="M144.09,-341.91C131.17,-330.1 117.08,-317.22 104.21,-305.45"/>
<polygon fill="black" stroke="black" points="106.53,-302.83 96.79,-298.67 101.8,-308 106.53,-302.83"/>
</g>
<!-- 5 -->
<g id="node6" class="node">
<title>5</title>
<polygon fill="#8139e5" stroke="black" points="252,-298.5 139,-298.5 139,-230.5 252,-230.5 252,-298.5"/>
<text text-anchor="middle" x="195.5" y="-283.3" font-family="Helvetica,sans-Serif" font-size="14.00">gini = 0.0</text>
<text text-anchor="middle" x="195.5" y="-268.3" font-family="Helvetica,sans-Serif" font-size="14.00">samples = 1</text>
<text text-anchor="middle" x="195.5" y="-253.3" font-family="Helvetica,sans-Serif" font-size="14.00">value = [0, 0, 1]</text>
<text text-anchor="middle" x="195.5" y="-238.3" font-family="Helvetica,sans-Serif" font-size="14.00">class = virginica</text>
</g>
<!-- 3&#45;&gt;5 -->
<g id="edge5" class="edge">
<title>3&#45;&gt;5</title>
<path fill="none" stroke="black" d="M190.93,-341.91C191.57,-331.2 192.26,-319.62 192.91,-308.78"/>
<polygon fill="black" stroke="black" points="196.41,-308.86 193.52,-298.67 189.42,-308.44 196.41,-308.86"/>
</g>
<!-- 7 -->
<g id="node8" class="node">
<title>7</title>
<polygon fill="#ffffff" stroke="black" points="450.5,-306 282.5,-306 282.5,-223 450.5,-223 450.5,-306"/>
<text text-anchor="middle" x="366.5" y="-290.8" font-family="Helvetica,sans-Serif" font-size="14.00">petal length (cm) &lt;= 4.75</text>
<text text-anchor="middle" x="366.5" y="-275.8" font-family="Helvetica,sans-Serif" font-size="14.00">gini = 0.5</text>
<text text-anchor="middle" x="366.5" y="-260.8" font-family="Helvetica,sans-Serif" font-size="14.00">samples = 4</text>
<text text-anchor="middle" x="366.5" y="-245.8" font-family="Helvetica,sans-Serif" font-size="14.00">value = [0, 2, 2]</text>
<text text-anchor="middle" x="366.5" y="-230.8" font-family="Helvetica,sans-Serif" font-size="14.00">class = versicolor</text>
</g>
<!-- 6&#45;&gt;7 -->
<g id="edge7" class="edge">
<title>6&#45;&gt;7</title>
<path fill="none" stroke="black" d="M370.42,-341.91C369.99,-333.56 369.53,-324.67 369.09,-316.02"/>
<polygon fill="black" stroke="black" points="372.59,-315.83 368.58,-306.02 365.59,-316.19 372.59,-315.83"/>
</g>
<!-- 12 -->
<g id="node13" class="node">
<title>12</title>
<polygon fill="#843ee6" stroke="black" points="639.5,-306 471.5,-306 471.5,-223 639.5,-223 639.5,-306"/>
<text text-anchor="middle" x="555.5" y="-290.8" font-family="Helvetica,sans-Serif" font-size="14.00">petal length (cm) &lt;= 4.85</text>
<text text-anchor="middle" x="555.5" y="-275.8" font-family="Helvetica,sans-Serif" font-size="14.00">gini = 0.053</text>
<text text-anchor="middle" x="555.5" y="-260.8" font-family="Helvetica,sans-Serif" font-size="14.00">samples = 37</text>
<text text-anchor="middle" x="555.5" y="-245.8" font-family="Helvetica,sans-Serif" font-size="14.00">value = [0, 1, 36]</text>
<text text-anchor="middle" x="555.5" y="-230.8" font-family="Helvetica,sans-Serif" font-size="14.00">class = virginica</text>
</g>
<!-- 6&#45;&gt;12 -->
<g id="edge12" class="edge">
<title>6&#45;&gt;12</title>
<path fill="none" stroke="black" d="M435.99,-341.91C451.32,-332.11 467.81,-321.56 483.5,-311.53"/>
<polygon fill="black" stroke="black" points="485.58,-314.36 492.12,-306.02 481.81,-308.46 485.58,-314.36"/>
</g>
<!-- 8 -->
<g id="node9" class="node">
<title>8</title>
<polygon fill="#8139e5" stroke="black" points="263,-179.5 150,-179.5 150,-111.5 263,-111.5 263,-179.5"/>
<text text-anchor="middle" x="206.5" y="-164.3" font-family="Helvetica,sans-Serif" font-size="14.00">gini = 0.0</text>
<text text-anchor="middle" x="206.5" y="-149.3" font-family="Helvetica,sans-Serif" font-size="14.00">samples = 1</text>
<text text-anchor="middle" x="206.5" y="-134.3" font-family="Helvetica,sans-Serif" font-size="14.00">value = [0, 0, 1]</text>
<text text-anchor="middle" x="206.5" y="-119.3" font-family="Helvetica,sans-Serif" font-size="14.00">class = virginica</text>
</g>
<!-- 7&#45;&gt;8 -->
<g id="edge8" class="edge">
<title>7&#45;&gt;8</title>
<path fill="none" stroke="black" d="M310.99,-222.91C294.54,-210.88 276.56,-197.73 260.23,-185.79"/>
<polygon fill="black" stroke="black" points="261.99,-182.74 251.86,-179.67 257.86,-188.39 261.99,-182.74"/>
</g>
<!-- 9 -->
<g id="node10" class="node">
<title>9</title>
<polygon fill="#9cf2c0" stroke="black" points="452,-187 281,-187 281,-104 452,-104 452,-187"/>
<text text-anchor="middle" x="366.5" y="-171.8" font-family="Helvetica,sans-Serif" font-size="14.00">sepal length (cm) &lt;= 6.95</text>
<text text-anchor="middle" x="366.5" y="-156.8" font-family="Helvetica,sans-Serif" font-size="14.00">gini = 0.444</text>
<text text-anchor="middle" x="366.5" y="-141.8" font-family="Helvetica,sans-Serif" font-size="14.00">samples = 3</text>
<text text-anchor="middle" x="366.5" y="-126.8" font-family="Helvetica,sans-Serif" font-size="14.00">value = [0, 2, 1]</text>
<text text-anchor="middle" x="366.5" y="-111.8" font-family="Helvetica,sans-Serif" font-size="14.00">class = versicolor</text>
</g>
<!-- 7&#45;&gt;9 -->
<g id="edge9" class="edge">
<title>7&#45;&gt;9</title>
<path fill="none" stroke="black" d="M366.5,-222.91C366.5,-214.65 366.5,-205.86 366.5,-197.3"/>
<polygon fill="black" stroke="black" points="370,-197.02 366.5,-187.02 363,-197.02 370,-197.02"/>
</g>
<!-- 10 -->
<g id="node11" class="node">
<title>10</title>
<polygon fill="#39e581" stroke="black" points="305,-68 184,-68 184,0 305,0 305,-68"/>
<text text-anchor="middle" x="244.5" y="-52.8" font-family="Helvetica,sans-Serif" font-size="14.00">gini = 0.0</text>
<text text-anchor="middle" x="244.5" y="-37.8" font-family="Helvetica,sans-Serif" font-size="14.00">samples = 2</text>
<text text-anchor="middle" x="244.5" y="-22.8" font-family="Helvetica,sans-Serif" font-size="14.00">value = [0, 2, 0]</text>
<text text-anchor="middle" x="244.5" y="-7.8" font-family="Helvetica,sans-Serif" font-size="14.00">class = versicolor</text>
</g>
<!-- 9&#45;&gt;10 -->
<g id="edge10" class="edge">
<title>9&#45;&gt;10</title>
<path fill="none" stroke="black" d="M321.07,-103.73C310.6,-94.33 299.48,-84.35 289.05,-74.99"/>
<polygon fill="black" stroke="black" points="291.38,-72.37 281.6,-68.3 286.71,-77.58 291.38,-72.37"/>
</g>
<!-- 11 -->
<g id="node12" class="node">
<title>11</title>
<polygon fill="#8139e5" stroke="black" points="436,-68 323,-68 323,0 436,0 436,-68"/>
<text text-anchor="middle" x="379.5" y="-52.8" font-family="Helvetica,sans-Serif" font-size="14.00">gini = 0.0</text>
<text text-anchor="middle" x="379.5" y="-37.8" font-family="Helvetica,sans-Serif" font-size="14.00">samples = 1</text>
<text text-anchor="middle" x="379.5" y="-22.8" font-family="Helvetica,sans-Serif" font-size="14.00">value = [0, 0, 1]</text>
<text text-anchor="middle" x="379.5" y="-7.8" font-family="Helvetica,sans-Serif" font-size="14.00">class = virginica</text>
</g>
<!-- 9&#45;&gt;11 -->
<g id="edge11" class="edge">
<title>9&#45;&gt;11</title>
<path fill="none" stroke="black" d="M371.34,-103.73C372.33,-95.43 373.37,-86.67 374.36,-78.28"/>
<polygon fill="black" stroke="black" points="377.84,-78.64 375.55,-68.3 370.89,-77.82 377.84,-78.64"/>
</g>
<!-- 13 -->
<g id="node14" class="node">
<title>13</title>
<polygon fill="#c09cf2" stroke="black" points="641,-187 470,-187 470,-104 641,-104 641,-187"/>
<text text-anchor="middle" x="555.5" y="-171.8" font-family="Helvetica,sans-Serif" font-size="14.00">sepal length (cm) &lt;= 5.95</text>
<text text-anchor="middle" x="555.5" y="-156.8" font-family="Helvetica,sans-Serif" font-size="14.00">gini = 0.444</text>
<text text-anchor="middle" x="555.5" y="-141.8" font-family="Helvetica,sans-Serif" font-size="14.00">samples = 3</text>
<text text-anchor="middle" x="555.5" y="-126.8" font-family="Helvetica,sans-Serif" font-size="14.00">value = [0, 1, 2]</text>
<text text-anchor="middle" x="555.5" y="-111.8" font-family="Helvetica,sans-Serif" font-size="14.00">class = virginica</text>
</g>
<!-- 12&#45;&gt;13 -->
<g id="edge13" class="edge">
<title>12&#45;&gt;13</title>
<path fill="none" stroke="black" d="M555.5,-222.91C555.5,-214.65 555.5,-205.86 555.5,-197.3"/>
<polygon fill="black" stroke="black" points="559,-197.02 555.5,-187.02 552,-197.02 559,-197.02"/>
</g>
<!-- 16 -->
<g id="node17" class="node">
<title>16</title>
<polygon fill="#8139e5" stroke="black" points="776,-179.5 659,-179.5 659,-111.5 776,-111.5 776,-179.5"/>
<text text-anchor="middle" x="717.5" y="-164.3" font-family="Helvetica,sans-Serif" font-size="14.00">gini = 0.0</text>
<text text-anchor="middle" x="717.5" y="-149.3" font-family="Helvetica,sans-Serif" font-size="14.00">samples = 34</text>
<text text-anchor="middle" x="717.5" y="-134.3" font-family="Helvetica,sans-Serif" font-size="14.00">value = [0, 0, 34]</text>
<text text-anchor="middle" x="717.5" y="-119.3" font-family="Helvetica,sans-Serif" font-size="14.00">class = virginica</text>
</g>
<!-- 12&#45;&gt;16 -->
<g id="edge16" class="edge">
<title>12&#45;&gt;16</title>
<path fill="none" stroke="black" d="M611.71,-222.91C628.36,-210.88 646.56,-197.73 663.1,-185.79"/>
<polygon fill="black" stroke="black" points="665.52,-188.36 671.58,-179.67 661.42,-182.68 665.52,-188.36"/>
</g>
<!-- 14 -->
<g id="node15" class="node">
<title>14</title>
<polygon fill="#39e581" stroke="black" points="602,-68 481,-68 481,0 602,0 602,-68"/>
<text text-anchor="middle" x="541.5" y="-52.8" font-family="Helvetica,sans-Serif" font-size="14.00">gini = 0.0</text>
<text text-anchor="middle" x="541.5" y="-37.8" font-family="Helvetica,sans-Serif" font-size="14.00">samples = 1</text>
<text text-anchor="middle" x="541.5" y="-22.8" font-family="Helvetica,sans-Serif" font-size="14.00">value = [0, 1, 0]</text>
<text text-anchor="middle" x="541.5" y="-7.8" font-family="Helvetica,sans-Serif" font-size="14.00">class = versicolor</text>
</g>
<!-- 13&#45;&gt;14 -->
<g id="edge14" class="edge">
<title>13&#45;&gt;14</title>
<path fill="none" stroke="black" d="M550.29,-103.73C549.23,-95.43 548.11,-86.67 547.03,-78.28"/>
<polygon fill="black" stroke="black" points="550.5,-77.77 545.76,-68.3 543.55,-78.66 550.5,-77.77"/>
</g>
<!-- 15 -->
<g id="node16" class="node">
<title>15</title>
<polygon fill="#8139e5" stroke="black" points="733,-68 620,-68 620,0 733,0 733,-68"/>
<text text-anchor="middle" x="676.5" y="-52.8" font-family="Helvetica,sans-Serif" font-size="14.00">gini = 0.0</text>
<text text-anchor="middle" x="676.5" y="-37.8" font-family="Helvetica,sans-Serif" font-size="14.00">samples = 2</text>
<text text-anchor="middle" x="676.5" y="-22.8" font-family="Helvetica,sans-Serif" font-size="14.00">value = [0, 0, 2]</text>
<text text-anchor="middle" x="676.5" y="-7.8" font-family="Helvetica,sans-Serif" font-size="14.00">class = virginica</text>
</g>
<!-- 13&#45;&gt;15 -->
<g id="edge15" class="edge">
<title>13&#45;&gt;15</title>
<path fill="none" stroke="black" d="M600.56,-103.73C610.84,-94.42 621.75,-84.54 632.01,-75.26"/>
<polygon fill="black" stroke="black" points="634.64,-77.6 639.7,-68.3 629.94,-72.41 634.64,-77.6"/>
</g>
</g>
</svg>
